<svg width="618" height="111" viewBox="0 0 618 111" fill="none" xmlns="http://www.w3.org/2000/svg">
<path d="M62.9033 46.7441L60.8867 48.0771C59.6562 46.2542 58.0498 44.8187 56.0674 43.7705C54.1077 42.6995 51.9772 42.1641 49.6758 42.1641C45.9388 42.1641 42.7487 43.4857 40.1055 46.1289C37.4622 48.7721 36.1406 51.9622 36.1406 55.6992C36.1406 59.4362 37.4622 62.6263 40.1055 65.2695C42.7487 67.9128 45.9388 69.2344 49.6758 69.2344C51.9772 69.2344 54.1077 68.6989 56.0674 67.6279C58.0498 66.557 59.6562 65.11 60.8867 63.2871L62.8691 64.7227C61.4108 66.8646 59.5195 68.5622 57.1953 69.8154C54.8711 71.0687 52.3646 71.6953 49.6758 71.6953C47.5111 71.6953 45.4375 71.2738 43.4551 70.4307C41.4954 69.5876 39.7979 68.4482 38.3623 67.0127C36.9268 65.5771 35.7874 63.8796 34.9443 61.9199C34.1012 59.9375 33.6797 57.8639 33.6797 55.6992C33.6797 53.5345 34.1012 51.4723 34.9443 49.5127C35.7874 47.5303 36.9268 45.8213 38.3623 44.3857C39.7979 42.9502 41.4954 41.8109 43.4551 40.9678C45.4375 40.1247 47.5111 39.7031 49.6758 39.7031C52.3874 39.7031 54.9053 40.3411 57.2295 41.6172C59.5537 42.8704 61.445 44.5794 62.9033 46.7441ZM66.9707 43.9414L64.9199 45.2744C63.2337 42.8135 61.0462 40.8652 58.3574 39.4297C55.6914 37.9714 52.7975 37.2422 49.6758 37.2422C46.3262 37.2422 43.2386 38.0739 40.4131 39.7373C37.5876 41.3779 35.3431 43.611 33.6797 46.4365C32.0391 49.262 31.2188 52.3496 31.2188 55.6992C31.2188 59.0488 32.0391 62.1364 33.6797 64.9619C35.3431 67.7874 37.5876 70.0319 40.4131 71.6953C43.2386 73.3359 46.3262 74.1562 49.6758 74.1562C52.7975 74.1562 55.7028 73.4271 58.3916 71.9688C61.0804 70.5104 63.2679 68.5394 64.9541 66.0557L66.9707 67.457C65.0566 70.2826 62.5729 72.5156 59.5195 74.1562C56.4889 75.7969 53.2077 76.6172 49.6758 76.6172C45.8932 76.6172 42.3955 75.6829 39.1826 73.8145C35.9697 71.946 33.429 69.4053 31.5605 66.1924C29.6921 62.9795 28.7578 59.4818 28.7578 55.6992C28.7578 51.9167 29.6921 48.4189 31.5605 45.2061C33.429 41.9932 35.9697 39.4525 39.1826 37.584C42.3955 35.7155 45.8932 34.7812 49.6758 34.7812C53.2077 34.7812 56.4889 35.6016 59.5195 37.2422C62.5729 38.8828 65.0566 41.1159 66.9707 43.9414ZM71.0723 41.207L69.0215 42.54C66.8796 39.3955 64.0996 36.9118 60.6816 35.0889C57.2865 33.2432 53.6178 32.3203 49.6758 32.3203C46.5085 32.3203 43.4779 32.9355 40.584 34.166C37.6901 35.3965 35.195 37.0599 33.0986 39.1562C31.0251 41.2298 29.373 43.7135 28.1426 46.6074C26.9121 49.5013 26.2969 52.5319 26.2969 55.6992C26.2969 58.8665 26.9121 61.8971 28.1426 64.791C29.373 67.6849 31.0251 70.18 33.0986 72.2764C35.195 74.3499 37.6901 76.002 40.584 77.2324C43.4779 78.4629 46.5085 79.0781 49.6758 79.0781C53.6406 79.0781 57.3206 78.1553 60.7158 76.3096C64.111 74.4639 66.8796 71.9688 69.0215 68.8242L71.0039 70.2939C68.6341 73.7575 65.5693 76.5033 61.8096 78.5312C58.0726 80.5365 54.028 81.5391 49.6758 81.5391C45.0046 81.5391 40.6865 80.3883 36.7217 78.0869C32.7568 75.7627 29.6123 72.6182 27.2881 68.6533C24.9867 64.6885 23.8359 60.3704 23.8359 55.6992C23.8359 51.028 24.9867 46.71 27.2881 42.7451C29.6123 38.7803 32.7568 35.6471 36.7217 33.3457C40.6865 31.0215 45.0046 29.8594 49.6758 29.8594C54.0508 29.8594 58.1182 30.8848 61.8779 32.9355C65.6377 34.9635 68.7025 37.7207 71.0723 41.207ZM75.1055 38.4043L73.0547 39.7373C70.457 35.932 67.096 32.9242 62.9717 30.7139C58.8701 28.5036 54.4382 27.3984 49.6758 27.3984C45.8477 27.3984 42.179 28.1504 38.6699 29.6543C35.1836 31.1354 32.1758 33.1406 29.6465 35.6699C27.1172 38.1992 25.1006 41.2184 23.5967 44.7275C22.1156 48.2139 21.375 51.8711 21.375 55.6992C21.375 59.5273 22.1156 63.196 23.5967 66.7051C25.1006 70.1914 27.1172 73.1992 29.6465 75.7285C32.1758 78.2578 35.1836 80.2744 38.6699 81.7783C42.179 83.2594 45.8477 84 49.6758 84C54.4382 84 58.8815 82.8835 63.0059 80.6504C67.1302 78.4173 70.4912 75.3981 73.0889 71.5928L75.0713 73.0967C72.2458 77.1982 68.5999 80.4567 64.1338 82.8721C59.6676 85.2646 54.8483 86.4609 49.6758 86.4609C45.5059 86.4609 41.5182 85.6406 37.7129 84C33.9303 82.3822 30.6605 80.2061 27.9033 77.4717C25.1689 74.7145 22.9814 71.4447 21.3408 67.6621C19.723 63.8568 18.9141 59.8691 18.9141 55.6992C18.9141 51.5293 19.723 47.5531 21.3408 43.7705C22.9814 39.9652 25.1689 36.6953 27.9033 33.9609C30.6605 31.2038 33.9303 29.0163 37.7129 27.3984C41.5182 25.7578 45.5059 24.9375 49.6758 24.9375C54.8711 24.9375 59.7018 26.1452 64.168 28.5605C68.6341 30.9759 72.2799 34.2572 75.1055 38.4043ZM98.6553 52.4521C96.7412 54.3662 95.7842 56.679 95.7842 59.3906C95.7842 62.1022 96.7412 64.4264 98.6553 66.3633C100.592 68.2773 102.916 69.2344 105.628 69.2344C108.34 69.2344 110.652 68.2773 112.566 66.3633C114.503 64.4264 115.472 62.1022 115.472 59.3906C115.472 56.679 114.503 54.3662 112.566 52.4521C110.652 50.5153 108.34 49.5469 105.628 49.5469C102.916 49.5469 100.592 50.5153 98.6553 52.4521ZM96.9121 68.1064C94.5195 65.6911 93.3232 62.7858 93.3232 59.3906C93.3232 55.9954 94.5195 53.1016 96.9121 50.709C99.3275 48.2936 102.233 47.0859 105.628 47.0859C109.023 47.0859 111.917 48.2936 114.31 50.709C116.725 53.1016 117.933 55.9954 117.933 59.3906C117.933 62.7858 116.725 65.6911 114.31 68.1064C111.917 70.499 109.023 71.6953 105.628 71.6953C102.233 71.6953 99.3275 70.499 96.9121 68.1064ZM95.1689 48.9658C92.2979 51.8597 90.8623 55.3346 90.8623 59.3906C90.8623 63.4466 92.2979 66.9215 95.1689 69.8154C98.0628 72.7093 101.549 74.1562 105.628 74.1562C109.707 74.1562 113.182 72.7093 116.053 69.8154C118.947 66.9215 120.394 63.4466 120.394 59.3906C120.394 55.3346 118.947 51.8597 116.053 48.9658C113.182 46.0719 109.707 44.625 105.628 44.625C101.549 44.625 98.0628 46.0719 95.1689 48.9658ZM90.6914 68.0381C89.1647 65.3949 88.4014 62.5124 88.4014 59.3906C88.4014 56.2689 89.1647 53.3864 90.6914 50.7432C92.2409 48.0999 94.3372 46.015 96.9805 44.4883C99.6237 42.9388 102.506 42.1641 105.628 42.1641C108.75 42.1641 111.632 42.9388 114.275 44.4883C116.919 46.015 119.004 48.0999 120.53 50.7432C122.08 53.3864 122.854 56.2689 122.854 59.3906C122.854 62.5124 122.08 65.3949 120.53 68.0381C119.004 70.6813 116.919 72.7777 114.275 74.3271C111.632 75.8538 108.75 76.6172 105.628 76.6172C102.506 76.6172 99.6237 75.8538 96.9805 74.3271C94.3372 72.7777 92.2409 70.6813 90.6914 68.0381ZM87.4785 51.7686C86.4531 54.1839 85.9404 56.7246 85.9404 59.3906C85.9404 62.0566 86.4531 64.6087 87.4785 67.0469C88.5267 69.4622 89.9281 71.5586 91.6826 73.3359C93.46 75.0905 95.5563 76.4919 97.9717 77.54C100.41 78.5654 102.962 79.0781 105.628 79.0781C108.294 79.0781 110.835 78.5654 113.25 77.54C115.688 76.4919 117.785 75.0905 119.539 73.3359C121.316 71.5586 122.718 69.4622 123.743 67.0469C124.791 64.6087 125.315 62.0566 125.315 59.3906C125.315 56.7246 124.791 54.1839 123.743 51.7686C122.718 49.3304 121.316 47.234 119.539 45.4795C117.785 43.7021 115.688 42.3008 113.25 41.2754C110.835 40.2272 108.294 39.7031 105.628 39.7031C102.962 39.7031 100.41 40.2272 97.9717 41.2754C95.5563 42.3008 93.46 43.7021 91.6826 45.4795C89.9281 47.234 88.5267 49.3304 87.4785 51.7686ZM85.2227 68.0039C84.0605 65.2695 83.4795 62.3984 83.4795 59.3906C83.4795 56.3828 84.0605 53.5117 85.2227 50.7773C86.4076 48.043 87.9798 45.696 89.9395 43.7363C91.9219 41.7539 94.2803 40.1816 97.0146 39.0195C99.749 37.8346 102.62 37.2422 105.628 37.2422C108.636 37.2422 111.507 37.8346 114.241 39.0195C116.976 40.1816 119.323 41.7539 121.282 43.7363C123.265 45.696 124.837 48.043 125.999 50.7773C127.184 53.5117 127.776 56.3828 127.776 59.3906C127.776 62.3984 127.184 65.2695 125.999 68.0039C124.837 70.7383 123.265 73.0967 121.282 75.0791C119.323 77.0387 116.976 78.611 114.241 79.7959C111.507 80.958 108.636 81.5391 105.628 81.5391C102.62 81.5391 99.749 80.958 97.0146 79.7959C94.2803 78.611 91.9219 77.0387 89.9395 75.0791C87.9798 73.0967 86.4076 70.7383 85.2227 68.0039ZM82.9668 49.8545C81.668 52.8851 81.0186 56.0638 81.0186 59.3906C81.0186 62.7174 81.668 65.9076 82.9668 68.9609C84.2656 71.9915 86.0088 74.612 88.1963 76.8223C90.4066 79.0098 93.027 80.7529 96.0576 82.0518C99.111 83.3506 102.301 84 105.628 84C108.955 84 112.133 83.3506 115.164 82.0518C118.217 80.7529 120.838 79.0098 123.025 76.8223C125.236 74.612 126.99 71.9915 128.289 68.9609C129.588 65.9076 130.237 62.7174 130.237 59.3906C130.237 56.0638 129.588 52.8851 128.289 49.8545C126.99 46.8011 125.236 44.1807 123.025 41.9932C120.838 39.7829 118.217 38.0283 115.164 36.7295C112.133 35.4307 108.955 34.7812 105.628 34.7812C102.301 34.7812 99.111 35.4307 96.0576 36.7295C93.027 38.0283 90.4066 39.7829 88.1963 41.9932C86.0088 44.1807 84.2656 46.8011 82.9668 49.8545ZM80.7109 69.918C79.2754 66.5684 78.5576 63.0592 78.5576 59.3906C78.5576 55.722 79.2754 52.2243 80.7109 48.8975C82.1465 45.5479 84.0719 42.6654 86.4873 40.25C88.9027 37.8346 91.7738 35.9092 95.1006 34.4736C98.4502 33.0381 101.959 32.3203 105.628 32.3203C109.297 32.3203 112.794 33.0381 116.121 34.4736C119.471 35.9092 122.353 37.8346 124.769 40.25C127.184 42.6654 129.109 45.5479 130.545 48.8975C131.98 52.2243 132.698 55.722 132.698 59.3906C132.698 63.0592 131.98 66.5684 130.545 69.918C129.109 73.2448 127.184 76.1159 124.769 78.5312C122.353 80.9466 119.471 82.8721 116.121 84.3076C112.794 85.7432 109.297 86.4609 105.628 86.4609C101.959 86.4609 98.4502 85.7432 95.1006 84.3076C91.7738 82.8721 88.9027 80.9466 86.4873 78.5312C84.0719 76.1159 82.1465 73.2448 80.7109 69.918ZM169.681 53.2383V84H167.22V53.2383C167.22 52.5775 167.106 52.0192 166.878 51.5635C166.673 51.085 166.399 50.7204 166.058 50.4697C165.716 50.2191 165.26 50.0254 164.69 49.8887C164.144 49.7292 163.608 49.638 163.084 49.6152C162.56 49.5697 161.91 49.5469 161.136 49.5469C160.361 49.5469 159.712 49.5697 159.188 49.6152C158.663 49.638 158.117 49.7292 157.547 49.8887C157 50.0254 156.556 50.2191 156.214 50.4697C155.872 50.7204 155.587 51.085 155.359 51.5635C155.154 52.0192 155.052 52.5775 155.052 53.2383V84H152.591V53.2383C152.591 49.1367 155.439 47.0859 161.136 47.0859C166.832 47.0859 169.681 49.1367 169.681 53.2383ZM174.603 53.2383V84H172.142V53.2383C172.142 50.3444 171.116 48.1911 169.065 46.7783C167.037 45.3428 164.394 44.625 161.136 44.625C157.877 44.625 155.223 45.3428 153.172 46.7783C151.144 48.1911 150.13 50.3444 150.13 53.2383V84H147.669V53.2383C147.669 50.8457 148.284 48.7949 149.515 47.0859C150.745 45.377 152.352 44.1351 154.334 43.3604C156.339 42.5628 158.606 42.1641 161.136 42.1641C163.665 42.1641 165.921 42.5628 167.903 43.3604C169.909 44.1351 171.526 45.377 172.757 47.0859C173.987 48.7949 174.603 50.8457 174.603 53.2383ZM179.524 53.2383V84H177.063V53.2383C177.063 51.0964 176.642 49.1595 175.799 47.4277C174.979 45.696 173.839 44.2718 172.381 43.1553C170.923 42.0387 169.236 41.1842 167.322 40.5918C165.408 39.9993 163.346 39.7031 161.136 39.7031C158.925 39.7031 156.863 39.9993 154.949 40.5918C153.035 41.1842 151.349 42.0387 149.891 43.1553C148.432 44.2718 147.282 45.696 146.438 47.4277C145.618 49.1595 145.208 51.0964 145.208 53.2383V84H142.747V53.2383C142.747 50.7546 143.226 48.4987 144.183 46.4707C145.162 44.4427 146.484 42.7679 148.147 41.4463C149.811 40.1019 151.759 39.0651 153.992 38.3359C156.225 37.6068 158.606 37.2422 161.136 37.2422C163.665 37.2422 166.046 37.6068 168.279 38.3359C170.512 39.0651 172.461 40.1019 174.124 41.4463C175.787 42.7679 177.098 44.4427 178.055 46.4707C179.035 48.4987 179.524 50.7546 179.524 53.2383ZM184.446 84H181.985V53.2383C181.985 50.7546 181.427 48.3734 180.311 46.0947C179.217 43.8161 177.736 41.8564 175.867 40.2158C173.999 38.5524 171.777 37.2308 169.202 36.251C166.627 35.2712 163.938 34.7812 161.136 34.7812C157.285 34.7812 153.787 35.5104 150.643 36.9688C147.521 38.4043 145.014 40.5462 143.123 43.3945C141.232 46.2201 140.286 49.5013 140.286 53.2383V84H137.825V53.2383C137.825 50.0938 138.44 47.1999 139.671 44.5566C140.901 41.9134 142.565 39.7031 144.661 37.9258C146.78 36.1484 149.253 34.7699 152.078 33.79C154.926 32.8102 157.946 32.3203 161.136 32.3203C166.787 32.3203 171.686 33.7445 175.833 36.5928C179.98 33.7445 184.879 32.3203 190.53 32.3203C193.72 32.3203 196.728 32.8102 199.554 33.79C202.402 34.7699 204.874 36.1484 206.971 37.9258C209.09 39.7031 210.765 41.9134 211.995 44.5566C213.226 47.1999 213.841 50.0938 213.841 53.2383V84H211.38V53.2383C211.38 49.5241 210.434 46.2542 208.543 43.4287C206.652 40.5804 204.134 38.4271 200.989 36.9688C197.868 35.5104 194.381 34.7812 190.53 34.7812C185.7 34.7812 181.484 35.9206 177.884 38.1992C178.408 38.6549 178.989 39.2474 179.627 39.9766C182.749 38.1536 186.383 37.2422 190.53 37.2422C193.06 37.2422 195.441 37.6068 197.674 38.3359C199.907 39.0651 201.855 40.1019 203.519 41.4463C205.182 42.7679 206.492 44.4427 207.449 46.4707C208.429 48.4987 208.919 50.7546 208.919 53.2383V84H206.458V53.2383C206.458 51.0964 206.036 49.1595 205.193 47.4277C204.373 45.696 203.234 44.2718 201.775 43.1553C200.317 42.0387 198.631 41.1842 196.717 40.5918C194.803 39.9993 192.741 39.7031 190.53 39.7031C186.907 39.7031 183.774 40.4437 181.131 41.9248C181.541 42.5628 181.951 43.2692 182.361 44.0439C184.594 42.7907 187.317 42.1641 190.53 42.1641C193.06 42.1641 195.315 42.5628 197.298 43.3604C199.303 44.1351 200.921 45.377 202.151 47.0859C203.382 48.7949 203.997 50.8457 203.997 53.2383V84H201.536V53.2383C201.536 50.3444 200.511 48.1911 198.46 46.7783C196.432 45.3428 193.789 44.625 190.53 44.625C187.568 44.625 185.164 45.1719 183.318 46.2656C183.615 47.1315 183.842 47.9518 184.002 48.7266C185.438 47.6328 187.614 47.0859 190.53 47.0859C196.227 47.0859 199.075 49.1367 199.075 53.2383V84H196.614V53.2383C196.614 52.5775 196.5 52.0192 196.272 51.5635C196.067 51.085 195.794 50.7204 195.452 50.4697C195.11 50.2191 194.655 50.0254 194.085 49.8887C193.538 49.7292 193.003 49.638 192.479 49.6152C191.954 49.5697 191.305 49.5469 190.53 49.5469C189.756 49.5469 189.106 49.5697 188.582 49.6152C188.058 49.638 187.511 49.7292 186.941 49.8887C186.395 50.0254 185.95 50.2191 185.608 50.4697C185.267 50.7204 184.982 51.085 184.754 51.5635C184.549 52.0192 184.446 52.5775 184.446 53.2383V84ZM234.759 34.7812H237.22V84H234.759V34.7812ZM229.837 34.7812H232.298V84H229.837V34.7812ZM224.915 34.7812H227.376V84H224.915V34.7812ZM219.993 34.7812H222.454V84H219.993V34.7812ZM282.474 64.1416L280.013 59.6641V34.7812H282.474V64.1416ZM287.396 72.6523L284.935 68.4824V34.7812H287.396V72.6523ZM253.489 54.6396L255.95 59.1172V84H253.489V54.6396ZM248.567 45.7871L251.028 50.2988V84H248.567V45.7871ZM249.422 34.7812H252.293L280.799 84H277.928L249.422 34.7812ZM255.232 34.7812H258.138L286.609 84H283.67L255.232 34.7812ZM261.009 34.7812H263.88L289.856 79.7275V34.7812H292.317V84H289.412L261.009 34.7812ZM246.106 39.0195V84H243.646V34.7812H246.585L274.988 84H272.151L246.106 39.0195ZM333.367 59.0488H335.828V84C332.182 85.6406 328.411 86.4609 324.515 86.4609C320.846 86.4609 317.337 85.7432 313.987 84.3076C310.66 82.8721 307.789 80.9466 305.374 78.5312C302.959 76.1159 301.033 73.2448 299.598 69.918C298.162 66.5684 297.444 63.0592 297.444 59.3906C297.444 55.722 298.162 52.2243 299.598 48.8975C301.033 45.5479 302.959 42.6654 305.374 40.25C307.789 37.8346 310.66 35.9092 313.987 34.4736C317.337 33.0381 320.846 32.3203 324.515 32.3203C328.707 32.3203 332.649 33.2318 336.341 35.0547C340.032 36.8548 343.143 39.3385 345.672 42.5059L343.689 43.9756C341.388 41.1273 338.562 38.8828 335.213 37.2422C331.886 35.6016 328.32 34.7812 324.515 34.7812C321.188 34.7812 317.998 35.4307 314.944 36.7295C311.914 38.0283 309.293 39.7829 307.083 41.9932C304.896 44.1807 303.152 46.8011 301.854 49.8545C300.555 52.8851 299.905 56.0638 299.905 59.3906C299.905 62.7174 300.555 65.9076 301.854 68.9609C303.152 71.9915 304.896 74.612 307.083 76.8223C309.293 79.0098 311.914 80.7529 314.944 82.0518C317.998 83.3506 321.188 84 324.515 84C327.591 84 330.542 83.4531 333.367 82.3594V79.8301C330.519 80.9694 327.568 81.5391 324.515 81.5391C321.507 81.5391 318.636 80.958 315.901 79.7959C313.167 78.611 310.809 77.0387 308.826 75.0791C306.867 73.0967 305.294 70.7383 304.109 68.0039C302.947 65.2695 302.366 62.3984 302.366 59.3906C302.366 56.3828 302.947 53.5117 304.109 50.7773C305.294 48.043 306.867 45.696 308.826 43.7363C310.809 41.7539 313.167 40.1816 315.901 39.0195C318.636 37.8346 321.507 37.2422 324.515 37.2422C327.955 37.2422 331.18 37.9827 334.188 39.4639C337.218 40.945 339.77 42.9844 341.844 45.582L339.93 47.1201C338.084 44.8187 335.817 43.0072 333.128 41.6855C330.439 40.3639 327.568 39.7031 324.515 39.7031C321.849 39.7031 319.297 40.2272 316.858 41.2754C314.443 42.3008 312.347 43.7021 310.569 45.4795C308.815 47.234 307.413 49.3304 306.365 51.7686C305.34 54.1839 304.827 56.7246 304.827 59.3906C304.827 62.0566 305.34 64.6087 306.365 67.0469C307.413 69.4622 308.815 71.5586 310.569 73.3359C312.347 75.0905 314.443 76.4919 316.858 77.54C319.297 78.5654 321.849 79.0781 324.515 79.0781C327.659 79.0781 330.61 78.4401 333.367 77.1641V74.6348C330.61 75.9564 327.659 76.6172 324.515 76.6172C321.393 76.6172 318.51 75.8538 315.867 74.3271C313.224 72.7777 311.128 70.6813 309.578 68.0381C308.051 65.3949 307.288 62.5124 307.288 59.3906C307.288 56.2689 308.051 53.3864 309.578 50.7432C311.128 48.0999 313.224 46.015 315.867 44.4883C318.51 42.9388 321.393 42.1641 324.515 42.1641C327.181 42.1641 329.687 42.7451 332.034 43.9072C334.404 45.0465 336.386 46.6302 337.981 48.6582L336.033 50.1621C334.666 48.4303 332.968 47.0745 330.94 46.0947C328.935 45.1149 326.793 44.625 324.515 44.625C320.436 44.625 316.95 46.0719 314.056 48.9658C311.185 51.8597 309.749 55.3346 309.749 59.3906C309.749 63.4466 311.185 66.9215 314.056 69.8154C316.95 72.7093 320.436 74.1562 324.515 74.1562C327.705 74.1562 330.656 73.3815 333.367 71.832V69.3369C330.701 70.9092 327.75 71.6953 324.515 71.6953C321.119 71.6953 318.214 70.499 315.799 68.1064C313.406 65.6911 312.21 62.7858 312.21 59.3906C312.21 55.9954 313.406 53.1016 315.799 50.709C318.214 48.2936 321.119 47.0859 324.515 47.0859C326.429 47.0859 328.229 47.5075 329.915 48.3506C331.601 49.1709 333.014 50.2988 334.153 51.7344L332.171 53.2383C330.188 50.7773 327.636 49.5469 324.515 49.5469C321.803 49.5469 319.479 50.5153 317.542 52.4521C315.628 54.3662 314.671 56.679 314.671 59.3906C314.671 62.1022 315.628 64.4264 317.542 66.3633C319.479 68.2773 321.803 69.2344 324.515 69.2344C328.001 69.2344 330.952 68.266 333.367 66.3291V59.0488ZM348.133 59.0488H350.594V84H348.133V59.0488ZM343.211 59.0488H345.672V84H343.211V59.0488ZM338.289 59.0488H340.75V84H338.289V59.0488Z" fill="#A855F7"/>
<path d="M402.273 49.5469H398.138C396.383 49.5469 395.118 49.1025 394.344 48.2139C393.569 47.3024 393.182 46.1061 393.182 44.625C393.182 41.3438 395.631 39.7031 400.53 39.7031C405.133 39.7031 408.597 40.3867 410.921 41.7539L408.938 43.2578C407.343 42.5286 404.541 42.1641 400.53 42.1641C398.571 42.1641 397.249 42.3805 396.565 42.8135C395.905 43.2464 395.574 43.8503 395.574 44.625C395.574 45.3997 395.757 46.0036 396.121 46.4365C396.486 46.8695 397.158 47.0859 398.138 47.0859H402.376C405.452 47.0859 408.221 47.61 410.682 48.6582C413.165 49.7064 415.205 51.1419 416.8 52.9648C418.395 54.765 419.614 56.8499 420.457 59.2197C421.3 61.5667 421.722 64.0846 421.722 66.7734C421.722 68.9609 421.414 71.0345 420.799 72.9941C420.184 74.9538 419.249 76.7539 417.996 78.3945C416.766 80.0352 415.273 81.4593 413.519 82.667C411.787 83.8519 409.713 84.7747 407.298 85.4355C404.905 86.1191 402.308 86.4609 399.505 86.4609C395.107 86.4609 390.983 85.7887 387.132 84.4443C383.304 83.1227 380.114 81.2656 377.562 78.873L379.544 77.4033C381.868 79.4997 384.773 81.1289 388.26 82.291C391.769 83.4303 395.517 84 399.505 84C402.627 84 405.441 83.5557 407.947 82.667C410.477 81.7555 412.55 80.5137 414.168 78.9414C415.809 77.3691 417.062 75.5462 417.928 73.4727C418.816 71.3991 419.261 69.166 419.261 66.7734C419.261 63.6061 418.623 60.7464 417.347 58.1943C416.071 55.6195 414.122 53.5345 411.502 51.9395C408.904 50.3444 405.828 49.5469 402.273 49.5469ZM398.138 52.0078H402.034C406.66 52.0078 410.271 53.4206 412.869 56.2461C415.49 59.0716 416.8 62.5807 416.8 66.7734C416.8 71.0345 415.285 74.5664 412.254 77.3691C409.223 80.1491 404.974 81.5391 399.505 81.5391C395.859 81.5391 392.452 81.0378 389.285 80.0352C386.118 79.0326 383.486 77.6198 381.39 75.7969L383.304 74.2588C385.172 75.7855 387.519 76.9704 390.345 77.8135C393.193 78.6566 396.246 79.0781 399.505 79.0781C404.313 79.0781 407.981 77.9274 410.511 75.626C413.063 73.3245 414.339 70.3737 414.339 66.7734C414.339 63.2188 413.268 60.2793 411.126 57.9551C409.007 55.6309 405.965 54.4688 402 54.4688H398.138C394.811 54.4688 392.316 53.5573 390.652 51.7344C388.989 49.9115 388.157 47.5417 388.157 44.625C388.157 41.7083 389.183 39.3385 391.233 37.5156C393.307 35.6927 396.406 34.7812 400.53 34.7812C403.424 34.7812 406.113 35.123 408.597 35.8066C411.08 36.4674 413.131 37.4245 414.749 38.6777L412.801 40.1816C409.952 38.222 405.862 37.2422 400.53 37.2422C397.09 37.2422 394.572 37.9258 392.977 39.293C391.404 40.6374 390.618 42.4147 390.618 44.625C390.618 46.8581 391.199 48.6468 392.361 49.9912C393.546 51.3356 395.472 52.0078 398.138 52.0078ZM398.138 56.9297H401.897C405.224 56.9297 407.719 57.8525 409.383 59.6982C411.046 61.5439 411.878 63.9023 411.878 66.7734C411.878 69.6901 410.841 72.0599 408.768 73.8828C406.717 75.7057 403.629 76.6172 399.505 76.6172C396.611 76.6172 393.911 76.2868 391.404 75.626C388.921 74.9424 386.87 73.974 385.252 72.7207L387.2 71.2168C390.049 73.1764 394.15 74.1562 399.505 74.1562C402.946 74.1562 405.452 73.484 407.024 72.1396C408.619 70.7725 409.417 68.9837 409.417 66.7734C409.417 64.5632 408.825 62.7858 407.64 61.4414C406.455 60.0742 404.529 59.3906 401.863 59.3906H398.138C393.466 59.3906 389.809 58.0007 387.166 55.2207C384.546 52.418 383.235 48.8861 383.235 44.625C383.235 40.3639 384.751 36.8434 387.781 34.0635C390.812 31.2607 395.062 29.8594 400.53 29.8594C404.176 29.8594 407.571 30.3607 410.716 31.3633C413.883 32.3659 416.515 33.7786 418.611 35.6016L416.697 37.1396C414.829 35.613 412.482 34.4281 409.656 33.585C406.831 32.7419 403.789 32.3203 400.53 32.3203C395.722 32.3203 392.042 33.471 389.49 35.7725C386.961 38.0739 385.696 41.0247 385.696 44.625C385.696 48.2025 386.767 51.1533 388.909 53.4775C391.051 55.779 394.127 56.9297 398.138 56.9297ZM398.138 61.8516H401.897C403.652 61.8516 404.917 62.3073 405.691 63.2188C406.466 64.1302 406.854 65.3151 406.854 66.7734C406.854 70.0547 404.404 71.6953 399.505 71.6953C394.879 71.6953 391.404 71.0117 389.08 69.6445L391.062 68.1406C392.658 68.8698 395.472 69.2344 399.505 69.2344C401.465 69.2344 402.775 69.0179 403.436 68.585C404.119 68.152 404.461 67.5482 404.461 66.7734C404.461 66.0215 404.267 65.429 403.88 64.9961C403.515 64.5404 402.832 64.3125 401.829 64.3125H398.138C394.993 64.3125 392.145 63.7998 389.593 62.7744C387.063 61.749 384.979 60.3363 383.338 58.5361C381.72 56.736 380.478 54.651 379.612 52.2812C378.746 49.9115 378.313 47.3594 378.313 44.625C378.313 42.4375 378.621 40.3639 379.236 38.4043C379.852 36.4447 380.774 34.6445 382.005 33.0039C383.258 31.3633 384.751 29.9505 386.482 28.7656C388.237 27.5579 390.311 26.6237 392.703 25.9629C395.118 25.2793 397.728 24.9375 400.53 24.9375C404.928 24.9375 409.041 25.6097 412.869 26.9541C416.697 28.2757 419.887 30.1328 422.439 32.5254L420.457 33.9951C418.133 31.8988 415.228 30.2809 411.741 29.1416C408.255 27.9795 404.518 27.3984 400.53 27.3984C397.409 27.3984 394.583 27.8542 392.054 28.7656C389.547 29.6543 387.474 30.8848 385.833 32.457C384.215 34.0293 382.962 35.8522 382.073 37.9258C381.207 39.9993 380.774 42.2324 380.774 44.625C380.774 47.8379 381.424 50.7318 382.723 53.3066C384.021 55.8815 386.004 57.9551 388.67 59.5273C391.336 61.0768 394.492 61.8516 398.138 61.8516ZM445.989 52.4521C444.075 54.3662 443.118 56.679 443.118 59.3906C443.118 62.1022 444.075 64.4264 445.989 66.3633C447.926 68.2773 450.25 69.2344 452.962 69.2344C455.674 69.2344 457.986 68.2773 459.9 66.3633C461.837 64.4264 462.806 62.1022 462.806 59.3906C462.806 56.679 461.837 54.3662 459.9 52.4521C457.986 50.5153 455.674 49.5469 452.962 49.5469C450.25 49.5469 447.926 50.5153 445.989 52.4521ZM444.246 68.1064C441.854 65.6911 440.657 62.7858 440.657 59.3906C440.657 55.9954 441.854 53.1016 444.246 50.709C446.661 48.2936 449.567 47.0859 452.962 47.0859C456.357 47.0859 459.251 48.2936 461.644 50.709C464.059 53.1016 465.267 55.9954 465.267 59.3906C465.267 62.7858 464.059 65.6911 461.644 68.1064C459.251 70.499 456.357 71.6953 452.962 71.6953C449.567 71.6953 446.661 70.499 444.246 68.1064ZM442.503 48.9658C439.632 51.8597 438.196 55.3346 438.196 59.3906C438.196 63.4466 439.632 66.9215 442.503 69.8154C445.397 72.7093 448.883 74.1562 452.962 74.1562C457.041 74.1562 460.516 72.7093 463.387 69.8154C466.281 66.9215 467.728 63.4466 467.728 59.3906C467.728 55.3346 466.281 51.8597 463.387 48.9658C460.516 46.0719 457.041 44.625 452.962 44.625C448.883 44.625 445.397 46.0719 442.503 48.9658ZM438.025 68.0381C436.499 65.3949 435.735 62.5124 435.735 59.3906C435.735 56.2689 436.499 53.3864 438.025 50.7432C439.575 48.0999 441.671 46.015 444.314 44.4883C446.958 42.9388 449.84 42.1641 452.962 42.1641C456.084 42.1641 458.966 42.9388 461.609 44.4883C464.253 46.015 466.338 48.0999 467.864 50.7432C469.414 53.3864 470.188 56.2689 470.188 59.3906C470.188 62.5124 469.414 65.3949 467.864 68.0381C466.338 70.6813 464.253 72.7777 461.609 74.3271C458.966 75.8538 456.084 76.6172 452.962 76.6172C449.84 76.6172 446.958 75.8538 444.314 74.3271C441.671 72.7777 439.575 70.6813 438.025 68.0381ZM434.812 51.7686C433.787 54.1839 433.274 56.7246 433.274 59.3906C433.274 62.0566 433.787 64.6087 434.812 67.0469C435.861 69.4622 437.262 71.5586 439.017 73.3359C440.794 75.0905 442.89 76.4919 445.306 77.54C447.744 78.5654 450.296 79.0781 452.962 79.0781C455.628 79.0781 458.169 78.5654 460.584 77.54C463.022 76.4919 465.118 75.0905 466.873 73.3359C468.65 71.5586 470.052 69.4622 471.077 67.0469C472.125 64.6087 472.649 62.0566 472.649 59.3906C472.649 56.7246 472.125 54.1839 471.077 51.7686C470.052 49.3304 468.65 47.234 466.873 45.4795C465.118 43.7021 463.022 42.3008 460.584 41.2754C458.169 40.2272 455.628 39.7031 452.962 39.7031C450.296 39.7031 447.744 40.2272 445.306 41.2754C442.89 42.3008 440.794 43.7021 439.017 45.4795C437.262 47.234 435.861 49.3304 434.812 51.7686ZM432.557 68.0039C431.395 65.2695 430.813 62.3984 430.813 59.3906C430.813 56.3828 431.395 53.5117 432.557 50.7773C433.742 48.043 435.314 45.696 437.273 43.7363C439.256 41.7539 441.614 40.1816 444.349 39.0195C447.083 37.8346 449.954 37.2422 452.962 37.2422C455.97 37.2422 458.841 37.8346 461.575 39.0195C464.31 40.1816 466.657 41.7539 468.616 43.7363C470.599 45.696 472.171 48.043 473.333 50.7773C474.518 53.5117 475.11 56.3828 475.11 59.3906C475.11 62.3984 474.518 65.2695 473.333 68.0039C472.171 70.7383 470.599 73.0967 468.616 75.0791C466.657 77.0387 464.31 78.611 461.575 79.7959C458.841 80.958 455.97 81.5391 452.962 81.5391C449.954 81.5391 447.083 80.958 444.349 79.7959C441.614 78.611 439.256 77.0387 437.273 75.0791C435.314 73.0967 433.742 70.7383 432.557 68.0039ZM430.301 49.8545C429.002 52.8851 428.353 56.0638 428.353 59.3906C428.353 62.7174 429.002 65.9076 430.301 68.9609C431.6 71.9915 433.343 74.612 435.53 76.8223C437.741 79.0098 440.361 80.7529 443.392 82.0518C446.445 83.3506 449.635 84 452.962 84C456.289 84 459.467 83.3506 462.498 82.0518C465.551 80.7529 468.172 79.0098 470.359 76.8223C472.57 74.612 474.324 71.9915 475.623 68.9609C476.922 65.9076 477.571 62.7174 477.571 59.3906C477.571 56.0638 476.922 52.8851 475.623 49.8545C474.324 46.8011 472.57 44.1807 470.359 41.9932C468.172 39.7829 465.551 38.0283 462.498 36.7295C459.467 35.4307 456.289 34.7812 452.962 34.7812C449.635 34.7812 446.445 35.4307 443.392 36.7295C440.361 38.0283 437.741 39.7829 435.53 41.9932C433.343 44.1807 431.6 46.8011 430.301 49.8545ZM428.045 69.918C426.609 66.5684 425.892 63.0592 425.892 59.3906C425.892 55.722 426.609 52.2243 428.045 48.8975C429.48 45.5479 431.406 42.6654 433.821 40.25C436.237 37.8346 439.108 35.9092 442.435 34.4736C445.784 33.0381 449.293 32.3203 452.962 32.3203C456.631 32.3203 460.128 33.0381 463.455 34.4736C466.805 35.9092 469.687 37.8346 472.103 40.25C474.518 42.6654 476.443 45.5479 477.879 48.8975C479.314 52.2243 480.032 55.722 480.032 59.3906C480.032 63.0592 479.314 66.5684 477.879 69.918C476.443 73.2448 474.518 76.1159 472.103 78.5312C469.687 80.9466 466.805 82.8721 463.455 84.3076C460.128 85.7432 456.631 86.4609 452.962 86.4609C449.293 86.4609 445.784 85.7432 442.435 84.3076C439.108 82.8721 436.237 80.9466 433.821 78.5312C431.406 76.1159 429.48 73.2448 428.045 69.918ZM509.495 52.4521C507.581 54.3662 506.624 56.679 506.624 59.3906C506.624 62.1022 507.581 64.4264 509.495 66.3633C511.432 68.2773 513.756 69.2344 516.468 69.2344C519.179 69.2344 521.492 68.2773 523.406 66.3633C525.343 64.4264 526.312 62.1022 526.312 59.3906C526.312 56.679 525.343 54.3662 523.406 52.4521C521.492 50.5153 519.179 49.5469 516.468 49.5469C513.756 49.5469 511.432 50.5153 509.495 52.4521ZM507.752 68.1064C505.359 65.6911 504.163 62.7858 504.163 59.3906C504.163 55.9954 505.359 53.1016 507.752 50.709C510.167 48.2936 513.073 47.0859 516.468 47.0859C519.863 47.0859 522.757 48.2936 525.149 50.709C527.565 53.1016 528.772 55.9954 528.772 59.3906C528.772 62.7858 527.565 65.6911 525.149 68.1064C522.757 70.499 519.863 71.6953 516.468 71.6953C513.073 71.6953 510.167 70.499 507.752 68.1064ZM506.009 48.9658C503.138 51.8597 501.702 55.3346 501.702 59.3906C501.702 63.4466 503.138 66.9215 506.009 69.8154C508.903 72.7093 512.389 74.1562 516.468 74.1562C520.547 74.1562 524.021 72.7093 526.893 69.8154C529.786 66.9215 531.233 63.4466 531.233 59.3906C531.233 55.3346 529.786 51.8597 526.893 48.9658C524.021 46.0719 520.547 44.625 516.468 44.625C512.389 44.625 508.903 46.0719 506.009 48.9658ZM501.531 68.0381C500.005 65.3949 499.241 62.5124 499.241 59.3906C499.241 56.2689 500.005 53.3864 501.531 50.7432C503.081 48.0999 505.177 46.015 507.82 44.4883C510.464 42.9388 513.346 42.1641 516.468 42.1641C519.59 42.1641 522.472 42.9388 525.115 44.4883C527.758 46.015 529.843 48.0999 531.37 50.7432C532.92 53.3864 533.694 56.2689 533.694 59.3906C533.694 62.5124 532.92 65.3949 531.37 68.0381C529.843 70.6813 527.758 72.7777 525.115 74.3271C522.472 75.8538 519.59 76.6172 516.468 76.6172C513.346 76.6172 510.464 75.8538 507.82 74.3271C505.177 72.7777 503.081 70.6813 501.531 68.0381ZM498.318 51.7686C497.293 54.1839 496.78 56.7246 496.78 59.3906C496.78 62.0566 497.293 64.6087 498.318 67.0469C499.367 69.4622 500.768 71.5586 502.522 73.3359C504.3 75.0905 506.396 76.4919 508.812 77.54C511.25 78.5654 513.802 79.0781 516.468 79.0781C519.134 79.0781 521.674 78.5654 524.09 77.54C526.528 76.4919 528.624 75.0905 530.379 73.3359C532.156 71.5586 533.558 69.4622 534.583 67.0469C535.631 64.6087 536.155 62.0566 536.155 59.3906C536.155 56.7246 535.631 54.1839 534.583 51.7686C533.558 49.3304 532.156 47.234 530.379 45.4795C528.624 43.7021 526.528 42.3008 524.09 41.2754C521.674 40.2272 519.134 39.7031 516.468 39.7031C513.802 39.7031 511.25 40.2272 508.812 41.2754C506.396 42.3008 504.3 43.7021 502.522 45.4795C500.768 47.234 499.367 49.3304 498.318 51.7686ZM496.062 68.0039C494.9 65.2695 494.319 62.3984 494.319 59.3906C494.319 56.3828 494.9 53.5117 496.062 50.7773C497.247 48.043 498.82 45.696 500.779 43.7363C502.762 41.7539 505.12 40.1816 507.854 39.0195C510.589 37.8346 513.46 37.2422 516.468 37.2422C519.476 37.2422 522.347 37.8346 525.081 39.0195C527.815 40.1816 530.162 41.7539 532.122 43.7363C534.104 45.696 535.677 48.043 536.839 50.7773C538.024 53.5117 538.616 56.3828 538.616 59.3906C538.616 62.3984 538.024 65.2695 536.839 68.0039C535.677 70.7383 534.104 73.0967 532.122 75.0791C530.162 77.0387 527.815 78.611 525.081 79.7959C522.347 80.958 519.476 81.5391 516.468 81.5391C513.46 81.5391 510.589 80.958 507.854 79.7959C505.12 78.611 502.762 77.0387 500.779 75.0791C498.82 73.0967 497.247 70.7383 496.062 68.0039ZM493.807 49.8545C492.508 52.8851 491.858 56.0638 491.858 59.3906C491.858 62.7174 492.508 65.9076 493.807 68.9609C495.105 71.9915 496.849 74.612 499.036 76.8223C501.246 79.0098 503.867 80.7529 506.897 82.0518C509.951 83.3506 513.141 84 516.468 84C519.795 84 522.973 83.3506 526.004 82.0518C529.057 80.7529 531.678 79.0098 533.865 76.8223C536.076 74.612 537.83 71.9915 539.129 68.9609C540.428 65.9076 541.077 62.7174 541.077 59.3906C541.077 56.0638 540.428 52.8851 539.129 49.8545C537.83 46.8011 536.076 44.1807 533.865 41.9932C531.678 39.7829 529.057 38.0283 526.004 36.7295C522.973 35.4307 519.795 34.7812 516.468 34.7812C513.141 34.7812 509.951 35.4307 506.897 36.7295C503.867 38.0283 501.246 39.7829 499.036 41.9932C496.849 44.1807 495.105 46.8011 493.807 49.8545ZM491.551 69.918C490.115 66.5684 489.397 63.0592 489.397 59.3906C489.397 55.722 490.115 52.2243 491.551 48.8975C492.986 45.5479 494.912 42.6654 497.327 40.25C499.743 37.8346 502.614 35.9092 505.94 34.4736C509.29 33.0381 512.799 32.3203 516.468 32.3203C520.136 32.3203 523.634 33.0381 526.961 34.4736C530.311 35.9092 533.193 37.8346 535.608 40.25C538.024 42.6654 539.949 45.5479 541.385 48.8975C542.82 52.2243 543.538 55.722 543.538 59.3906C543.538 63.0592 542.82 66.5684 541.385 69.918C539.949 73.2448 538.024 76.1159 535.608 78.5312C533.193 80.9466 530.311 82.8721 526.961 84.3076C523.634 85.7432 520.136 86.4609 516.468 86.4609C512.799 86.4609 509.29 85.7432 505.94 84.3076C502.614 82.8721 499.743 80.9466 497.327 78.5312C494.912 76.1159 492.986 73.2448 491.551 69.918ZM587.903 64.1416L585.442 59.6641V34.7812H587.903V64.1416ZM592.825 72.6523L590.364 68.4824V34.7812H592.825V72.6523ZM558.919 54.6396L561.38 59.1172V84H558.919V54.6396ZM553.997 45.7871L556.458 50.2988V84H553.997V45.7871ZM554.852 34.7812H557.723L586.229 84H583.357L554.852 34.7812ZM560.662 34.7812H563.567L592.039 84H589.1L560.662 34.7812ZM566.438 34.7812H569.31L595.286 79.7275V34.7812H597.747V84H594.842L566.438 34.7812ZM551.536 39.0195V84H549.075V34.7812H552.015L580.418 84H577.581L551.536 39.0195Z" fill="#06B6D4"/>
</svg>
